<svg xmlns="http://www.w3.org/2000/svg" viewBox="0 0 24 30" fill="none" x="0px" y="0px"><path fill-rule="evenodd" clip-rule="evenodd" d="M4.88069 8.82054C8.81758 5.05982 15.1824 5.05982 19.1193 8.82054L21.6907 11.2769C21.8883 11.4656 22 11.7268 22 12C22 12.2732 21.8883 12.5344 21.6907 12.7231L19.1193 15.1795C15.1824 18.9402 8.81758 18.9402 4.88069 15.1795L2.30926 12.7231C2.11174 12.5344 2 12.2732 2 12C2 11.7268 2.11174 11.4656 2.30926 11.2769L4.88069 8.82054ZM7 12C7 9.23858 9.23858 7 12 7C14.7614 7 17 9.23858 17 12C17 14.7614 14.7614 17 12 17C9.23858 17 7 14.7614 7 12Z" fill="black"/><text x="0" y="39" fill="#000000" font-size="5px" font-weight="bold" font-family="'Helvetica Neue', Helvetica, Arial-Unicode, Arial, Sans-serif">Created by Heztasia</text><text x="0" y="44" fill="#000000" font-size="5px" font-weight="bold" font-family="'Helvetica Neue', Helvetica, Arial-Unicode, Arial, Sans-serif">from the Noun Project</text></svg>