<svg width="24" height="24" viewBox="0 0 24 24" fill="none" xmlns="http://www.w3.org/2000/svg">
<path fill-rule="evenodd" clip-rule="evenodd" d="M20.2509 11.9999V12.5699L21.6684 13.8674C21.9301 14.0968 22.1038 14.4101 22.1599 14.7535C22.216 15.0969 22.151 15.4492 21.9759 15.7499L20.2659 18.7499C20.1344 18.9777 19.9453 19.167 19.7176 19.2986C19.4898 19.4302 19.2315 19.4997 18.9684 19.4999C18.8054 19.5012 18.6433 19.4759 18.4884 19.4249L16.6734 18.8099C16.3562 19.0191 16.0255 19.207 15.6834 19.3724L15.3009 21.2624C15.2323 21.6077 15.0445 21.9179 14.7703 22.1387C14.496 22.3594 14.1529 22.4767 13.8009 22.4699H10.2609C9.90895 22.4767 9.56581 22.3594 9.29158 22.1387C9.01735 21.9179 8.82951 21.6077 8.76092 21.2624L8.37842 19.3724C8.0388 19.2069 7.71058 19.019 7.39592 18.8099L5.57342 19.4249C5.41856 19.4759 5.25643 19.5012 5.09342 19.4999C4.83038 19.4997 4.57203 19.4302 4.34429 19.2986C4.11656 19.167 3.92744 18.9777 3.79592 18.7499L2.02592 15.7499C1.84284 15.4462 1.77328 15.0875 1.82957 14.7374C1.88586 14.3873 2.06437 14.0684 2.33342 13.8374L3.75092 12.5774V11.9999V11.4299L2.33342 10.1324C2.07176 9.90303 1.89801 9.58979 1.84191 9.24636C1.78581 8.90293 1.85086 8.55068 2.02592 8.24994L3.79592 5.24994C3.92744 5.02214 4.11656 4.83292 4.34429 4.70129C4.57203 4.56965 4.83038 4.50021 5.09342 4.49994C5.2548 4.48896 5.41689 4.50416 5.57342 4.54494L7.35842 5.18994C7.67565 4.9808 8.00637 4.79289 8.34842 4.62744L8.73092 2.73744C8.79951 2.39214 8.98735 2.08197 9.26158 1.86122C9.53581 1.64046 9.87895 1.52319 10.2309 1.52994H13.7409C14.0929 1.52319 14.436 1.64046 14.7103 1.86122C14.9845 2.08197 15.1723 2.39214 15.2409 2.73744L15.6234 4.62744C15.963 4.79293 16.2913 4.98084 16.6059 5.18994L18.4284 4.57494C18.5833 4.52402 18.7454 4.49869 18.9084 4.49994C19.1715 4.50021 19.4298 4.56965 19.6575 4.70129C19.8853 4.83292 20.0744 5.02214 20.2059 5.24994L21.9759 8.24994C22.1616 8.55113 22.2349 8.90827 22.1827 9.25824C22.1306 9.60821 21.9564 9.92848 21.6909 10.1624L20.2509 11.4224V11.9999ZM16.3359 17.1299L18.9084 17.9999L20.6784 14.9999L18.6384 13.1474C18.7771 12.3711 18.7771 11.5763 18.6384 10.7999L20.6784 8.99994L18.9084 5.99994L16.3284 6.83994C15.7241 6.3368 15.0396 5.93876 14.3034 5.66244L13.7709 2.99994H10.2309L9.69842 5.69244C8.95637 5.96113 8.26812 6.35986 7.66592 6.86994L5.09342 5.99994L3.32342 8.99994L5.36342 10.8524C5.22474 11.6288 5.22474 12.4236 5.36342 13.1999L3.32342 14.9999L5.09342 17.9999L7.67342 17.1599C8.27771 17.6631 8.96224 18.0611 9.69842 18.3374L10.2309 20.9999H13.7709L14.3034 18.3074C15.0455 18.0387 15.7337 17.64 16.3359 17.1299ZM9.50085 15.7416C10.2409 16.2361 11.1109 16.5 12.0009 16.5C12.5935 16.506 13.1814 16.3937 13.7301 16.1697C14.2788 15.9457 14.7772 15.6145 15.1963 15.1954C15.6154 14.7763 15.9466 14.2779 16.1706 13.7292C16.3946 13.1805 16.5069 12.5926 16.5009 12C16.5009 11.11 16.237 10.24 15.7425 9.49994C15.2481 8.75991 14.5453 8.18314 13.723 7.84254C12.9007 7.50195 11.9959 7.41283 11.123 7.58647C10.2501 7.7601 9.44827 8.18868 8.81894 8.81802C8.1896 9.44736 7.76102 10.2492 7.58738 11.1221C7.41375 11.995 7.50287 12.8998 7.84346 13.7221C8.18405 14.5443 8.76083 15.2471 9.50085 15.7416ZM10.842 9.20954C11.2102 9.06205 11.6044 8.99077 12.0009 9C12.3974 8.99077 12.7917 9.06205 13.1598 9.20954C13.528 9.35704 13.8624 9.57768 14.1428 9.85812C14.4232 10.1386 14.6439 10.473 14.7914 10.8411C14.9389 11.2093 15.0102 11.6035 15.0009 12C15.0102 12.3965 14.9389 12.7907 14.7914 13.1589C14.6439 13.527 14.4232 13.8615 14.1428 14.1419C13.8624 14.4223 13.528 14.643 13.1598 14.7905C12.7917 14.938 12.3974 15.0092 12.0009 15C11.6044 15.0092 11.2102 14.938 10.842 14.7905C10.4739 14.643 10.1395 14.4223 9.85903 14.1419C9.57859 13.8615 9.35795 13.527 9.21046 13.1589C9.06297 12.7907 8.99168 12.3965 9.00092 12C8.99168 11.6035 9.06297 11.2093 9.21046 10.8411C9.35795 10.473 9.57859 10.1386 9.85903 9.85812C10.1395 9.57768 10.4739 9.35704 10.842 9.20954Z" fill="white"/>
</svg>
