<svg width="20" height="18" viewBox="0 0 20 18" fill="none" xmlns="http://www.w3.org/2000/svg">
<path d="M17.75 0H6.5C6.1023 0.000397108 5.721 0.15856 5.43978 0.439779C5.15856 0.720997 5.0004 1.1023 5 1.5V12.4172C4.54607 12.1471 4.02823 12.003 3.5 12C2.90666 12 2.32664 12.1759 1.83329 12.5056C1.33994 12.8352 0.955426 13.3038 0.728363 13.8519C0.5013 14.4001 0.44189 15.0033 0.557645 15.5853C0.673401 16.1672 0.959123 16.7018 1.37868 17.1213C1.79824 17.5409 2.33279 17.8266 2.91473 17.9424C3.49667 18.0581 4.09987 17.9987 4.64805 17.7716C5.19623 17.5446 5.66477 17.1601 5.99441 16.6667C6.32405 16.1734 6.5 15.5933 6.5 15V6H17.75V12.4172C17.2961 12.147 16.7782 12.003 16.25 12C15.6567 12 15.0766 12.1759 14.5833 12.5056C14.0899 12.8352 13.7054 13.3038 13.4784 13.8519C13.2513 14.4001 13.1919 15.0033 13.3076 15.5853C13.4234 16.1672 13.7091 16.7018 14.1287 17.1213C14.5482 17.5409 15.0828 17.8266 15.6647 17.9424C16.2467 18.0581 16.8499 17.9987 17.3981 17.7716C17.9462 17.5446 18.4148 17.1601 18.7444 16.6667C19.0741 16.1734 19.25 15.5933 19.25 15V1.5C19.2495 1.10232 19.0914 0.72105 18.8102 0.439844C18.5289 0.158638 18.1477 0.00045655 17.75 0ZM3.5 16.5C3.20333 16.5 2.91332 16.412 2.66665 16.2472C2.41997 16.0824 2.22771 15.8481 2.11418 15.574C2.00065 15.2999 1.97095 14.9983 2.02882 14.7074C2.0867 14.4164 2.22956 14.1491 2.43934 13.9393C2.64912 13.7296 2.91639 13.5867 3.20737 13.5288C3.49834 13.4709 3.79994 13.5006 4.07403 13.6142C4.34812 13.7277 4.58238 13.92 4.74721 14.1666C4.91203 14.4133 5 14.7033 5 15C4.99954 15.3977 4.84136 15.779 4.56016 16.0602C4.27895 16.3414 3.89769 16.4995 3.5 16.5ZM16.25 16.5C15.9533 16.5 15.6633 16.412 15.4166 16.2472C15.17 16.0824 14.9777 15.8481 14.8642 15.574C14.7506 15.2999 14.7209 14.9983 14.7788 14.7074C14.8367 14.4164 14.9796 14.1491 15.1893 13.9393C15.3991 13.7296 15.6664 13.5867 15.9574 13.5288C16.2483 13.4709 16.5499 13.5006 16.824 13.6142C17.0981 13.7277 17.3324 13.92 17.4972 14.1666C17.662 14.4133 17.75 14.7033 17.75 15C17.7495 15.3977 17.5913 15.7789 17.3101 16.0601C17.0289 16.3413 16.6477 16.4995 16.25 16.5ZM6.5 1.5H17.75V4.5H6.5V1.5Z" fill="#121212"/>
</svg>
